<svg width="574" height="574" viewBox="0 0 574 574" fill="none" xmlns="http://www.w3.org/2000/svg">
<path fill-rule="evenodd" clip-rule="evenodd" d="M574 287C574 445.506 445.506 574 287 574C128.494 574 0 445.506 0 287C0 128.494 128.494 0 287 0C375.159 0 454.035 39.7494 506.682 102.304C479.142 92.3979 449.451 87 418.5 87C274.63 87 158 203.63 158 347.5C158 400.938 174.091 450.618 201.691 491.96C192.176 464.906 187 435.807 187 405.5C187 391.205 188.151 377.179 190.367 363.51C210.528 395.64 246.27 417 287 417C349.96 417 401 365.96 401 303C401 244.872 357.495 196.905 301.269 189.884C342.959 161.555 393.296 145 447.5 145C482.597 145 516.073 151.941 546.63 164.524C564.183 201.67 574 243.189 574 287Z" fill="#A81B26"/>
<path fill-rule="evenodd" clip-rule="evenodd" d="M287.835 573.804C445.848 573.804 573.943 445.709 573.943 287.696C573.943 254.887 568.421 223.368 558.255 194.018C542.947 191.376 527.205 190 511.142 190C460.613 190 413.265 203.621 372.569 227.391C404.589 250.679 425.405 288.439 425.405 331.06C425.405 401.808 368.052 459.161 297.304 459.161C275.421 459.161 254.819 453.674 236.8 444.001C236.27 450.978 236 458.029 236 465.142C236 503.127 243.697 539.313 257.616 572.227C267.547 573.269 277.628 573.804 287.835 573.804Z" fill="#A81B26"/>
<path fill-rule="evenodd" clip-rule="evenodd" d="M287.835 573.804C445.848 573.804 573.943 445.709 573.943 287.696C573.943 267.677 571.887 248.138 567.975 229.279C563.017 229.014 558.025 228.879 553.002 228.879C495.491 228.879 442.101 246.524 397.95 276.696C399.945 285.14 401 293.946 401 303C401 364.305 352.609 414.308 291.94 416.895C282.806 444.275 277.859 473.57 277.859 504.021C277.859 528.132 280.961 551.518 286.786 573.802C287.135 573.804 287.485 573.804 287.835 573.804Z" fill="#D12937"/>
<path fill-rule="evenodd" clip-rule="evenodd" d="M316.593 572.513C461.128 558.115 573.998 436.152 573.998 287.827C573.998 280.618 573.731 273.471 573.207 266.396C517.804 269.723 466.82 289.444 425.042 320.774C425.318 324.21 425.459 327.684 425.459 331.191C425.459 391.248 384.131 441.652 328.363 455.514C319.568 482.434 314.812 511.18 314.812 541.037C314.812 551.681 315.417 562.184 316.593 572.513Z" fill="#D12937"/>
<path fill-rule="evenodd" clip-rule="evenodd" d="M572.495 302.821C565.702 434.28 470.175 542.275 344.656 568.064C347.439 434.84 444.914 324.897 572.495 302.821Z" fill="#E72F3E"/>
<path fill-rule="evenodd" clip-rule="evenodd" d="M569.654 333.828C552.906 437.264 480.701 522.114 384.531 556.886C398.94 452.313 472.114 366.493 569.654 333.828Z" fill="#E72F3E"/>
<path fill-rule="evenodd" clip-rule="evenodd" d="M201.691 491.96C174.091 450.618 158 400.938 158 347.5C158 203.63 274.63 87 418.5 87C449.451 87 479.142 92.3979 506.682 102.304C454.035 39.7494 375.159 0 287 0C128.494 0 0 128.494 0 287C0 445.506 128.494 574 287 574C287.904 574 288.807 573.996 289.709 573.987C254.37 553.849 224.202 525.678 201.691 491.96Z" fill="#002A7C"/>
<path fill-rule="evenodd" clip-rule="evenodd" d="M206.866 195.573C254.153 129.82 331.326 87 418.5 87C449.451 87 479.142 92.3979 506.682 102.304C454.035 39.7494 375.159 0 287 0C128.494 0 0 128.494 0 287C0 318.769 5.16181 349.332 14.6925 377.897C33.9901 283.48 110.764 209.99 206.866 195.573Z" fill="#0044C9"/>
<path fill-rule="evenodd" clip-rule="evenodd" d="M320.677 106.061C350.927 93.7703 384.009 87 418.672 87C449.624 87 479.314 92.3979 506.854 102.304C454.207 39.7494 375.332 0 287.172 0C201.495 0 124.587 37.5425 72 97.0743C107.26 82.2144 146.007 74 186.672 74C234.914 74 280.455 85.5598 320.677 106.061Z" fill="#0057FF"/>
</svg>
